<svg xmlns="http://www.w3.org/2000/svg" xmlns:xlink="http://www.w3.org/1999/xlink" version="1.1" x="0px" y="0px" viewBox="0 0 100 125" style="enable-background:new 0 0 100 100;" xml:space="preserve"><g><g><path d="M81.1,70.4c-0.6,0-1.2-0.1-1.8-0.2L39.2,59.5c-0.1,0-0.2-0.1-0.3-0.1c-0.1-0.1-8.1-5.4-5.5-15.7    c0.1-0.6,0.7-0.9,1.3-0.8c0.6,0.1,0.9,0.7,0.8,1.3c-2,8.2,3.5,12.5,4.5,13.2L79.9,68c2.4,0.6,4.9-0.6,5.9-2.9l0.3-0.7    c0.2-0.5,0.2-1-0.1-1.5c-0.2-0.5-0.7-0.8-1.2-0.9C74,59.4,67.2,53.4,63.3,48.9c-2-2.3-3-5.3-3-8.4v-4.3c0-0.6,0.5-1.1,1.1-1.1    s1.1,0.5,1.1,1.1v4.3c0,2.6,0.9,5.1,2.5,7c3.6,4.3,10.1,10,20.3,12.4c1.2,0.3,2.1,1,2.7,2.1c0.5,1,0.6,2.3,0.1,3.3L87.8,66    C86.6,68.7,84,70.4,81.1,70.4z"/></g><g><path d="M34.7,94.7c-0.6,0-1.1-0.5-1.1-1.1V82.4c0-5.3,1.5-10.3,4.2-14.5c4-6,9-8.3,9.2-8.4    c0.5-0.2,1.2,0,1.5,0.5c0.2,0.6,0,1.2-0.5,1.4c-0.1,0-4.7,2.2-8.2,7.6c-2.5,3.8-3.8,8.4-3.8,13.3v11.2    C35.8,94.2,35.3,94.7,34.7,94.7z"/></g><g><path d="M95.8,32.6c-0.6,0-1.1-0.5-1.1-1.1v-7.7c0-0.6,0.5-1.1,1.1-1.1s1.1,0.5,1.1,1.1v7.7    C96.9,32.1,96.4,32.6,95.8,32.6z"/></g><g><path d="M89.8,36.4c-0.6,0-1.1-0.5-1.1-1.1v-7.7c0-0.6,0.5-1.1,1.1-1.1s1.1,0.5,1.1,1.1v7.7    C90.9,35.9,90.4,36.4,89.8,36.4z"/></g><g><path d="M83.3,39.5c-0.6,0-1.1-0.5-1.1-1.1v-7.7c0-0.6,0.5-1.1,1.1-1.1s1.1,0.5,1.1,1.1v7.7    C84.4,39,83.9,39.5,83.3,39.5z"/></g><g><path d="M76.6,41.2c-0.6,0-1.1-0.5-1.1-1.1v-7.7c0-0.6,0.5-1.1,1.1-1.1c0.6,0,1.1,0.5,1.1,1.1v7.7    C77.7,40.7,77.2,41.2,76.6,41.2z"/></g><g><path d="M69.4,42.1c-0.6,0-1.1-0.5-1.1-1.1v-7.7c0-0.6,0.5-1.1,1.1-1.1c0.6,0,1.1,0.5,1.1,1.1V41    C70.5,41.6,70,42.1,69.4,42.1z"/></g><g><path d="M85.5,61.6c-0.6,0-1.1-0.5-1.1-1.1v-7.7c0-0.6,0.5-1.1,1.1-1.1c0.6,0,1.1,0.5,1.1,1.1v7.7    C86.6,61.1,86.1,61.6,85.5,61.6z"/></g><g><path d="M79.8,60.4c-0.6,0-1.1-0.5-1.1-1.1v-7.7c0-0.6,0.5-1.1,1.1-1.1c0.6,0,1.1,0.5,1.1,1.1v7.7    C80.9,59.9,80.4,60.4,79.8,60.4z"/></g><g><path d="M73.7,57.4c-0.6,0-1.1-0.5-1.1-1.1v-7.7c0-0.6,0.5-1.1,1.1-1.1c0.6,0,1.1,0.5,1.1,1.1v7.7    C74.8,56.9,74.3,57.4,73.7,57.4z"/></g><circle cx="53.6" cy="16.9" r="1.7"/><g><path d="M53.2,23.1c-0.2,0-0.4,0-0.6,0c-2.9-0.2-5.5-2.2-6.6-4.9c-0.2-0.6,0.1-1.2,0.6-1.4    c0.6-0.2,1.2,0.1,1.4,0.6c0.7,1.9,2.7,3.3,4.7,3.5c2,0.2,4.2-1,5.2-2.7c0.3-0.5,1-0.7,1.5-0.4c0.5,0.3,0.7,1,0.4,1.5    C58.5,21.6,55.9,23.1,53.2,23.1z"/></g><g><path d="M89.7,16.8c-0.4,0-0.8-0.2-1-0.6c-0.4-0.8-1.1-1.5-1.9-1.9c-0.6-0.2-0.8-0.9-0.6-1.4    c0.2-0.6,0.9-0.8,1.4-0.6c1.4,0.5,2.5,1.6,3.1,3c0.2,0.6,0,1.2-0.5,1.5C90,16.8,89.8,16.8,89.7,16.8z"/></g><g><path d="M1.1,49.6c-0.2,0-0.5-0.1-0.7-0.2C0,49-0.1,48.3,0.2,47.8L9.2,36c0.1-0.1,5.6-7,6.6-13.9    c0-0.3,1.1-7.2,7.3-11.5c4.8-3.3,11.3-4.1,19.2-2.3c0.2,0.1,17.8,4.7,29.6-1.6c0,0,0.1,0,0.1,0c0.2-0.1,19-7.5,27.9,13.2    c0.2,0.4,0.1,0.8-0.1,1.1c-0.4,0.6-10.6,14.1-35.3,13.3c-4.6-0.1-6.5,0.7-8,1.5c-3.2,1.6-5,1.9-17.8-5.3c-0.5-0.3-0.7-1-0.4-1.5    c0.3-0.5,1-0.7,1.5-0.4c12.3,6.9,13.5,6.3,15.8,5.2c1.6-0.8,3.8-1.8,9-1.7c21,0.7,31.1-9.5,33.1-11.9C89.6,2.4,74,8.3,72.9,8.7    c-12.6,6.6-30.4,1.9-31.1,1.7c-7.3-1.7-13.2-1-17.4,1.9c-5.4,3.7-6.4,10-6.4,10c-1.1,7.5-6.8,14.6-7.1,14.9L2,49.1    C1.8,49.4,1.4,49.6,1.1,49.6z"/></g></g><text x="0" y="115" fill="#000000" font-size="5px" font-weight="bold" font-family="'Helvetica Neue', Helvetica, Arial-Unicode, Arial, Sans-serif">Created by N.Style</text><text x="0" y="120" fill="#000000" font-size="5px" font-weight="bold" font-family="'Helvetica Neue', Helvetica, Arial-Unicode, Arial, Sans-serif">from the Noun Project</text></svg>